<svg width="1103" height="703" viewBox="0 0 1103 703" fill="none" xmlns="http://www.w3.org/2000/svg">
<path d="M714.677 58.0311L694.001 58C690.162 58.0234 686.562 59.5401 683.864 62.2712C681.165 65.0022 679.693 68.6201 679.715 72.4595C679.763 80.355 686.202 86.7452 694.086 86.7452C694.116 86.7452 694.145 86.7452 694.175 86.7452C696.302 86.7323 698.351 86.263 700.266 85.3504C701.129 84.9385 701.677 84.0648 701.671 83.1086C701.665 82.1521 701.107 81.2849 700.238 80.8838C697.658 79.692 695.781 77.3995 695.067 74.7203H705.982C708.078 77.1678 711.233 78.5937 714.674 78.5937C720.805 78.5937 725.793 73.9814 725.793 68.3125C725.793 62.6441 720.807 58.0328 714.677 58.0311Z" fill="#D9D9DB"/>
<path d="M758.522 208C757.159 208 756.055 206.895 756.055 205.533V162.78C756.055 161.417 757.159 160.313 758.522 160.313C759.885 160.313 760.989 161.417 760.989 162.78V205.533C760.989 206.895 759.885 208 758.522 208Z" fill="#FF5468"/>
<path d="M745.775 208C744.412 208 743.308 206.895 743.308 205.533V162.78C743.308 161.417 744.412 160.313 745.775 160.313C747.138 160.313 748.242 161.417 748.242 162.78V205.533C748.242 206.895 747.138 208 745.775 208Z" fill="#FF5468"/>
<path d="M809.98 162.371C809.931 161.888 808.685 150.396 801.295 138.776C794.429 127.98 780.796 115.11 754.835 115.11C739.956 115.11 728.802 119.264 721.606 127.466C721.603 127.365 721.606 127.267 721.614 127.172C721.896 123.87 727.986 119.051 732.881 115.18C741.362 108.47 751.918 100.119 751.917 87.2939C751.917 80.8958 749.096 71.6734 735.654 64.0703C728.68 60.1263 721.747 58.3173 721.456 58.2423C720.785 58.0697 720.084 57.988 719.367 58.0014C718.087 58.0246 717.037 59.0224 716.95 60.2995C716.863 61.5765 717.766 62.708 719.031 62.9057C723.424 63.5919 726.612 67.3234 726.612 71.7786C726.612 72.6815 726.479 73.5733 726.215 74.4285C725.87 75.5491 726.361 76.7585 727.391 77.3207C730.724 79.1403 736.317 82.856 736.317 87.2942C736.317 92.57 729.946 97.6099 723.201 102.946C715.199 109.277 706.925 115.823 706.07 125.846C705.548 131.964 707.929 137.875 713.349 143.915C713.439 144.014 713.531 144.112 713.626 144.207C712.811 149.187 714.113 154.24 717.282 158.242C720.727 162.594 725.886 165.089 731.434 165.089H807.526C808.225 165.089 808.89 164.793 809.358 164.275C809.825 163.758 810.051 163.066 809.98 162.371Z" fill="#FF7E90"/>
<path d="M810.272 162.529C810.223 162.046 808.976 150.554 801.587 138.934C794.721 128.138 781.087 115.268 755.127 115.268C753.664 115.268 752.238 115.31 750.847 115.391C774.052 116.714 786.561 128.746 793.04 138.934C800.43 150.554 801.676 162.046 801.725 162.529C801.796 163.224 801.57 163.916 801.102 164.433C800.634 164.951 799.969 165.247 799.271 165.247H807.818C808.516 165.247 809.181 164.952 809.649 164.433C810.116 163.916 810.343 163.224 810.272 162.529Z" fill="#FF5468"/>
<path d="M790.412 165.247C789.061 165.247 787.959 164.159 787.946 162.805C787.738 141.934 765.238 135.081 765.011 135.014C763.703 134.63 762.955 133.259 763.34 131.951C763.723 130.644 765.096 129.895 766.402 130.28C766.67 130.358 773.03 132.262 779.465 137.146C788.14 143.729 792.779 152.585 792.88 162.756C792.894 164.118 791.8 165.234 790.438 165.247C790.429 165.247 790.42 165.247 790.412 165.247Z" fill="#D9D9DB"/>
<path d="M714.147 70.8558C712.526 70.8558 711.207 69.5401 711.207 67.9223C711.207 66.3048 712.526 64.9891 714.147 64.9891C715.767 64.9891 717.086 66.3048 717.086 67.9223C717.086 69.5398 715.767 70.8558 714.147 70.8558Z" fill="#2B2B2B"/>
<path d="M703.982 58.0149L694.001 58C690.162 58.0234 686.562 59.5401 683.864 62.2712C681.165 65.0022 679.693 68.6201 679.715 72.4595C679.763 80.355 686.202 86.7452 694.086 86.7452C694.116 86.7452 694.145 86.7452 694.175 86.7452C696.302 86.7323 698.351 86.263 700.266 85.3504C701.129 84.9385 701.677 84.0648 701.671 83.1086C701.665 82.1521 701.107 81.2849 700.238 80.8838C697.658 79.692 695.781 77.3995 695.067 74.7203C695.067 74.72 691.013 63.9221 703.982 58.0149Z" fill="#2A2A2C"/>
<path d="M735.945 64.2279C728.971 60.284 722.038 58.4749 721.747 58.3999C721.151 58.2464 720.53 58.1693 719.896 58.1626C719.251 58.0706 718.592 58.0202 717.922 58.0202C717.217 58.0202 716.507 58.0741 715.811 58.1799C714.609 58.363 713.72 59.3951 713.716 60.6112C713.712 61.8273 714.595 62.8647 715.796 63.0557C718.73 63.5222 720.859 65.7329 720.859 68.3125C720.859 71.2609 718.084 73.6592 714.674 73.6592C712.448 73.6592 710.382 72.6057 709.281 70.9097C708.826 70.2086 708.047 69.7855 707.211 69.7855H706.481C705.815 69.7855 705.178 70.0545 704.713 70.5323C704.249 71.0096 703.997 71.6544 704.015 72.3203C704.221 79.9088 710.33 85.8531 717.922 85.8531C725.596 85.8531 731.838 79.6102 731.838 71.9368C731.838 70.7043 731.675 69.5096 731.373 68.3705C741.021 74.9222 743.162 82.2458 743.162 87.4516C743.163 99.083 733.546 106.691 725.062 113.402C719.25 118 715.487 121.865 715.424 126.245C715.393 128.426 716.911 130.819 718.614 132.925C719.883 130.507 721.018 128.82 721.901 127.686C721.899 127.666 721.899 127.643 721.897 127.624C721.894 127.523 721.897 127.424 721.905 127.329C722.187 124.027 728.278 119.209 733.172 115.337C741.653 108.628 752.209 100.277 752.209 87.4516C752.208 81.0537 749.387 71.831 735.945 64.2279Z" fill="#FF5468"/>
<g clip-path="url(#clip0)">
<path d="M825.742 88.0248L809.201 88C806.13 88.0188 803.249 89.2321 801.091 91.417C798.932 93.6018 797.754 96.4961 797.772 99.5676C797.811 105.884 802.961 110.996 809.269 110.996C809.293 110.996 809.316 110.996 809.34 110.996C811.042 110.986 812.681 110.61 814.213 109.88C814.903 109.551 815.342 108.852 815.337 108.087C815.332 107.322 814.885 106.628 814.191 106.307C812.127 105.354 810.625 103.52 810.054 101.376H818.786C820.463 103.334 822.986 104.475 825.739 104.475C830.644 104.475 834.634 100.785 834.634 96.25C834.635 91.7153 830.646 88.0263 825.742 88.0248Z" fill="#D9D9DB"/>
<path d="M860.818 208C859.727 208 858.844 207.116 858.844 206.026V171.824C858.844 170.734 859.727 169.85 860.818 169.85C861.908 169.85 862.791 170.734 862.791 171.824V206.026C862.791 207.116 861.908 208 860.818 208Z" fill="#FF5468"/>
<path d="M850.62 208C849.53 208 848.646 207.116 848.646 206.026V171.824C848.646 170.734 849.53 169.85 850.62 169.85C851.71 169.85 852.593 170.734 852.593 171.824V206.026C852.593 207.116 851.71 208 850.62 208Z" fill="#FF5468"/>
<path d="M902.218 171.623C902.178 171.236 901.181 162.043 895.27 152.747C889.777 144.11 878.87 133.815 858.102 133.815C846.198 133.815 837.275 137.137 831.518 143.699C831.516 143.618 831.518 143.54 831.524 143.464C831.75 140.822 836.622 136.967 840.538 133.87C847.323 128.503 855.767 121.822 855.767 111.561C855.767 106.443 853.51 99.0651 842.756 92.9826C837.177 89.8274 831.631 88.3801 831.398 88.3201C830.861 88.1821 830.3 88.1167 829.727 88.1275C828.703 88.146 827.863 88.9443 827.793 89.9659C827.723 90.9876 828.446 91.8927 829.458 92.0509C832.972 92.5998 835.523 95.5851 835.523 99.1492C835.523 99.8716 835.416 100.585 835.205 101.269C834.929 102.166 835.322 103.133 836.146 103.583C838.813 105.039 843.287 108.011 843.287 111.562C843.287 115.782 838.19 119.814 832.794 124.083C826.393 129.148 819.773 134.385 819.089 142.403C818.672 147.298 820.577 152.026 824.913 156.858C824.984 156.938 825.058 157.016 825.134 157.092C824.482 161.076 825.524 165.119 828.059 168.32C830.815 171.801 834.942 173.797 839.381 173.797H900.254C900.813 173.797 901.345 173.561 901.719 173.146C902.093 172.732 902.274 172.179 902.218 171.623Z" fill="#FF7E90"/>
<path d="M902.218 171.623C902.178 171.236 901.181 162.043 895.27 152.747C889.777 144.11 878.87 133.815 858.102 133.815C856.931 133.815 855.79 133.848 854.678 133.912C873.242 134.971 883.248 144.597 888.432 152.747C894.344 162.043 895.341 171.236 895.38 171.623C895.437 172.179 895.256 172.732 894.881 173.147C894.507 173.561 893.975 173.798 893.417 173.798H900.254C900.813 173.798 901.345 173.561 901.719 173.147C902.093 172.732 902.274 172.179 902.218 171.623Z" fill="#FF5468"/>
<path d="M886.33 173.798C885.249 173.798 884.367 172.927 884.357 171.844C884.19 155.147 866.191 149.665 866.009 149.611C864.963 149.304 864.364 148.207 864.672 147.161C864.979 146.115 866.077 145.516 867.122 145.824C867.336 145.886 872.424 147.409 877.572 151.317C884.512 156.583 888.223 163.668 888.304 171.805C888.315 172.895 887.44 173.787 886.35 173.798C886.343 173.798 886.336 173.798 886.33 173.798Z" fill="#D9D9DB"/>
<path d="M825.317 98.2846C824.021 98.2846 822.966 97.232 822.966 95.9378C822.966 94.6438 824.02 93.5912 825.317 93.5912C826.614 93.5912 827.669 94.6438 827.669 95.9378C827.669 97.2318 826.614 98.2846 825.317 98.2846Z" fill="#2B2B2B"/>
<path d="M817.186 88.012L809.201 88C806.13 88.0188 803.249 89.2321 801.091 91.417C798.932 93.6018 797.754 96.4961 797.772 99.5676C797.811 105.884 802.961 110.996 809.269 110.996C809.293 110.996 809.316 110.996 809.34 110.996C811.042 110.986 812.681 110.61 814.213 109.88C814.903 109.551 815.342 108.852 815.337 108.087C815.332 107.322 814.885 106.628 814.191 106.307C812.127 105.354 810.625 103.52 810.054 101.376C810.054 101.376 806.81 92.7377 817.186 88.012Z" fill="#2A2A2C"/>
<path d="M842.756 92.9828C837.177 89.8276 831.631 88.3804 831.397 88.3204C830.92 88.1975 830.424 88.1359 829.917 88.1305C829.401 88.0569 828.874 88.0166 828.338 88.0166C827.774 88.0166 827.205 88.0597 826.649 88.1443C825.687 88.2908 824.976 89.1165 824.973 90.0894C824.97 91.0623 825.676 91.8922 826.637 92.045C828.984 92.4182 830.687 94.1868 830.687 96.2504C830.687 98.6092 828.468 100.528 825.739 100.528C823.959 100.528 822.305 99.685 821.425 98.3282C821.061 97.7673 820.438 97.4289 819.769 97.4289H819.185C818.652 97.4289 818.142 97.644 817.771 98.0263C817.399 98.4081 817.198 98.9239 817.212 99.4567C817.377 105.527 822.264 110.283 828.338 110.283C834.477 110.283 839.471 105.289 839.471 99.1499C839.471 98.1639 839.34 97.2081 839.099 96.2968C846.816 101.538 848.53 107.397 848.53 111.562C848.53 120.867 840.837 126.953 834.05 132.322C829.4 136.001 826.389 139.093 826.339 142.597C826.314 144.341 827.529 146.256 828.891 147.941C829.906 146.006 830.815 144.656 831.521 143.749C831.52 143.733 831.519 143.715 831.517 143.7C831.516 143.619 831.518 143.54 831.524 143.464C831.749 140.822 836.622 136.968 840.538 133.87C847.323 128.503 855.767 121.822 855.767 111.562C855.767 106.443 853.51 99.0653 842.756 92.9828Z" fill="#FF5468"/>
</g>
<path d="M590.634 38.0352L567.201 38C562.85 38.0266 558.77 39.7455 555.712 42.8407C552.654 45.9359 550.985 50.0361 551.011 54.3874C551.065 63.3356 558.362 70.5779 567.298 70.5779C567.331 70.5779 567.365 70.5779 567.398 70.5779C569.809 70.5633 572.132 70.0314 574.301 68.9971C575.28 68.5303 575.901 67.5402 575.894 66.4564C575.887 65.3723 575.254 64.3895 574.27 63.935C571.346 62.5843 569.218 59.9861 568.409 56.9497H580.78C583.155 59.7235 586.73 61.3395 590.63 61.3395C597.579 61.3395 603.232 56.1123 603.232 49.6875C603.232 43.2634 597.582 38.0372 590.634 38.0352Z" fill="#D9D9DB"/>
<path d="M640.325 208C638.78 208 637.529 206.748 637.529 205.204V156.751C637.529 155.206 638.78 153.955 640.325 153.955C641.87 153.955 643.121 155.206 643.121 156.751V205.204C643.121 206.748 641.869 208 640.325 208Z" fill="#FF5468"/>
<path d="M625.878 208C624.334 208 623.082 206.748 623.082 205.204V156.751C623.082 155.206 624.334 153.955 625.878 153.955C627.422 153.955 628.674 155.206 628.674 156.751V205.204C628.674 206.748 627.422 208 625.878 208Z" fill="#FF5468"/>
<path d="M698.975 156.466C698.919 155.918 697.507 142.895 689.132 129.725C681.35 117.49 665.899 102.904 636.477 102.904C619.614 102.904 606.973 107.611 598.817 116.908C598.814 116.793 598.817 116.681 598.826 116.574C599.145 112.831 606.048 107.371 611.595 102.983C621.208 95.3787 633.17 85.9144 633.17 71.3788C633.17 64.1276 629.972 53.6755 614.738 45.0587C606.835 40.5889 598.977 38.5386 598.647 38.4536C597.887 38.258 597.092 38.1654 596.279 38.1806C594.829 38.2069 593.639 39.3378 593.54 40.7851C593.441 42.2324 594.465 43.5147 595.898 43.7388C600.877 44.5165 604.491 48.7455 604.491 53.7947C604.491 54.8181 604.34 55.8288 604.041 56.798C603.649 58.068 604.207 59.4386 605.373 60.0758C609.151 62.138 615.49 66.3492 615.49 71.3791C615.49 77.3583 608.269 83.0703 600.625 89.1179C591.556 96.2928 582.179 103.712 581.21 115.071C580.619 122.005 583.317 128.704 589.46 135.549C589.561 135.662 589.666 135.773 589.773 135.881C588.85 141.525 590.325 147.252 593.917 151.787C597.822 156.718 603.668 159.546 609.956 159.546H696.194C696.985 159.546 697.739 159.211 698.269 158.624C698.799 158.038 699.055 157.253 698.975 156.466Z" fill="#FF7E90"/>
<path d="M698.975 156.466C698.919 155.918 697.507 142.895 689.132 129.725C681.35 117.49 665.899 102.904 636.477 102.904C634.819 102.904 633.203 102.952 631.627 103.043C657.926 104.542 672.102 118.179 679.445 129.725C687.821 142.895 689.232 155.918 689.289 156.466C689.369 157.253 689.112 158.038 688.582 158.625C688.052 159.212 687.298 159.547 686.507 159.547H696.193C696.985 159.547 697.739 159.212 698.269 158.625C698.799 158.038 699.055 157.253 698.975 156.466Z" fill="#FF5468"/>
<path d="M676.467 159.547C674.936 159.547 673.687 158.313 673.672 156.779C673.436 133.125 647.937 125.358 647.679 125.282C646.197 124.847 645.349 123.293 645.785 121.811C646.22 120.329 647.776 119.481 649.256 119.917C649.559 120.006 656.768 122.163 664.061 127.699C673.892 135.16 679.149 145.196 679.264 156.723C679.279 158.267 678.04 159.531 676.496 159.547C676.486 159.547 676.476 159.547 676.467 159.547Z" fill="#D9D9DB"/>
<path d="M590.033 52.5699C588.196 52.5699 586.701 51.0787 586.701 49.2453C586.701 47.4121 588.196 45.921 590.033 45.921C591.87 45.921 593.364 47.4121 593.364 49.2453C593.364 51.0784 591.87 52.5699 590.033 52.5699Z" fill="#2B2B2B"/>
<path d="M578.513 38.0169L567.201 38C562.85 38.0266 558.77 39.7455 555.712 42.8407C552.654 45.9359 550.985 50.0361 551.011 54.3874C551.065 63.3356 558.362 70.5779 567.298 70.5779C567.331 70.5779 567.365 70.5779 567.398 70.5779C569.809 70.5633 572.132 70.0314 574.301 68.9971C575.28 68.5303 575.901 67.5402 575.894 66.4564C575.887 65.3723 575.254 64.3895 574.27 63.935C571.346 62.5843 569.218 59.9861 568.409 56.9497C568.409 56.9494 563.815 44.7117 578.513 38.0169Z" fill="#2A2A2C"/>
<path d="M614.738 45.0583C606.834 40.5885 598.977 38.5382 598.646 38.4532C597.971 38.2792 597.267 38.1919 596.549 38.1843C595.817 38.08 595.071 38.0229 594.312 38.0229C593.512 38.0229 592.708 38.084 591.919 38.2038C590.557 38.4114 589.549 39.5811 589.545 40.9594C589.54 42.3376 590.541 43.5134 591.902 43.7298C595.227 44.2584 597.64 46.7639 597.64 49.6875C597.64 53.029 594.496 55.747 590.631 55.747C588.108 55.747 585.766 54.5531 584.519 52.6309C584.003 51.8364 583.12 51.3569 582.173 51.3569H581.346C580.591 51.3569 579.868 51.6617 579.342 52.2033C578.815 52.7442 578.53 53.475 578.55 54.2297C578.784 62.8299 585.708 69.5669 594.312 69.5669C603.009 69.5669 610.083 62.4916 610.083 53.795C610.083 52.3982 609.899 51.0442 609.556 49.7532C620.49 57.1784 622.917 65.4786 622.917 71.3784C622.917 84.5607 612.019 93.1826 602.404 100.789C595.817 106 591.551 110.381 591.48 115.345C591.445 117.816 593.165 120.528 595.096 122.915C596.534 120.175 597.821 118.263 598.821 116.977C598.819 116.954 598.818 116.929 598.816 116.907C598.814 116.792 598.817 116.681 598.826 116.573C599.145 112.831 606.048 107.37 611.595 102.982C621.207 95.3783 633.17 85.9141 633.17 71.3784C633.169 64.1275 629.972 53.6752 614.738 45.0583Z" fill="#FF5468"/>
<defs>
<clipPath id="clip0">
<rect width="120" height="120" fill="white" transform="translate(790 88)"/>
</clipPath>
</defs>
</svg>
